<?xml version="1.0" encoding="UTF-8"?>
<svg xmlns="http://www.w3.org/2000/svg" xmlns:xlink="http://www.w3.org/1999/xlink" width="84.7pt" height="48.2pt" viewBox="0 0 84.7 48.2" version="1.1">
<defs>
<clipPath id="clip1">
  <path d="M 0 0 L 84.699219 0 L 84.699219 48.199219 L 0 48.199219 Z M 0 0 "/>
</clipPath>
</defs>
<g id="surface1">
<g clip-path="url(#clip1)" clip-rule="nonzero">
<path style=" stroke:none;fill-rule:nonzero;fill:rgb(100%,100%,100%);fill-opacity:1;" d="M 84.699219 36.429688 C 84.699219 42.929688 79.621094 48.199219 73.359375 48.199219 L 11.339844 48.199219 C 5.074219 48.199219 0 42.929688 0 36.429688 L 0 11.773438 C 0 5.273438 5.074219 0.00390625 11.339844 0.00390625 L 73.359375 0.00390625 C 79.621094 0.00390625 84.699219 5.273438 84.699219 11.773438 "/>
</g>
<path style=" stroke:none;fill-rule:nonzero;fill:rgb(88.198853%,9.399414%,21.598816%);fill-opacity:1;" d="M 27.472656 15.351563 L 20.992188 15.351563 L 22.515625 10.777344 C 22.515625 10.777344 23.136719 8.683594 25.566406 8.683594 L 41.378906 8.683594 L 39.09375 15.539063 L 34.902344 15.539063 L 30.328125 28.304688 C 30.328125 28.304688 29.949219 31.355469 25.753906 31.355469 C 21.566406 31.355469 22.136719 31.164063 22.136719 31.164063 "/>
<path style=" stroke:none;fill-rule:nonzero;fill:rgb(88.198853%,9.399414%,21.598816%);fill-opacity:1;" d="M 38.519531 16.683594 L 45.191406 16.683594 L 40.996094 28.117188 C 40.996094 28.117188 40.425781 31.355469 36.996094 31.355469 C 33.566406 31.355469 33.1875 31.164063 33.1875 31.164063 "/>
<path style=" stroke:none;fill-rule:nonzero;fill:rgb(88.198853%,9.399414%,21.598816%);fill-opacity:1;" d="M 50.714844 8.683594 L 69.578125 8.683594 L 66.910156 15.351563 L 40.046875 15.351563 Z M 50.714844 8.683594 "/>
<path style=" stroke:none;fill-rule:nonzero;fill:rgb(88.198853%,9.399414%,21.598816%);fill-opacity:1;" d="M 58.144531 22.398438 L 55.859375 27.542969 C 55.859375 27.542969 54.90625 29.066406 53.382813 28.117188 C 51.859375 27.164063 52.429688 25.640625 52.429688 25.640625 L 54.523438 19.921875 C 54.523438 19.921875 55.621094 18.304688 57.191406 19.351563 C 58.90625 20.496094 58.144531 22.398438 58.144531 22.398438 M 60.050781 16.683594 L 59.097656 18.398438 C 55.476563 15.921875 52.621094 17.066406 52.621094 17.066406 C 45.761719 18.589844 45.953125 23.921875 45.953125 23.921875 C 44.617188 27.734375 47.285156 31.355469 50.332031 31.355469 C 53.382813 31.355469 54.523438 30.59375 54.523438 30.59375 L 54.523438 31.355469 L 59.097656 31.355469 C 61.191406 31.355469 62.335938 28.6875 62.335938 28.6875 L 66.71875 16.683594 "/>
<path style=" stroke:none;fill-rule:nonzero;fill:rgb(88.198853%,9.399414%,21.598816%);fill-opacity:1;" d="M 14.515625 32.878906 L 60.621094 32.878906 L 59.289063 36.5 C 59.289063 36.5 58.714844 39.738281 54.527344 39.738281 L 12.035156 39.738281 "/>
<path style=" stroke:none;fill-rule:nonzero;fill:rgb(88.198853%,9.399414%,21.598816%);fill-opacity:1;" d="M 62.148438 38.40625 C 60.8125 42.214844 58.144531 41.644531 58.144531 41.644531 L 9.5625 41.644531 C 9.5625 41.644531 19.660156 12.492188 20.800781 9.253906 C 21.945313 6.015625 24.039063 6.394531 24.039063 6.394531 L 73.199219 6.394531 C 73.199219 6.394531 63.480469 34.59375 62.148438 38.40625 M 22.207031 4.679688 C 22.207031 4.679688 19.933594 4.261719 18.699219 7.847656 C 17.457031 11.4375 6.511719 43.738281 6.511719 43.738281 L 57.382813 43.738281 C 57.382813 43.738281 61.460938 44.367188 62.910156 40.148438 C 64.355469 35.925781 75.484375 4.679688 75.484375 4.679688 "/>
</g>
</svg>
